<svg width="65" height="64" viewBox="0 0 65 64" fill="none" xmlns="http://www.w3.org/2000/svg">
<path d="M32.5 2.66669C48.7004 2.66669 61.8334 15.7997 61.8334 32C61.8334 48.2004 48.7004 61.3334 32.5 61.3334C16.2997 61.3334 3.16669 48.2004 3.16669 32C3.16669 15.7997 16.2997 2.66669 32.5 2.66669ZM48.2604 22.6667H44.1116C43.9701 22.6667 43.8345 22.7229 43.7345 22.8229L29.023 37.5323L22.3122 30.8219C22.2122 30.7218 22.0766 30.6657 21.9351 30.6657H17.7872C17.6458 30.6657 17.5102 30.7218 17.4102 30.8218C17.2019 31.03 17.2018 31.3677 17.41 31.576C17.6445 31.8106 17.8789 32.0452 18.1134 32.2797C18.177 32.3434 18.242 32.4084 18.3084 32.4749L18.7215 32.889C19.5767 33.7468 20.5972 34.7744 21.636 35.8222L22.4163 36.6096C24.8404 39.0564 27.1645 41.4099 27.5222 41.7714L27.568 41.8177C28.3491 42.5987 29.6154 42.5987 30.3965 41.8177L48.6375 23.5772C48.7375 23.4771 48.7937 23.3415 48.7937 23.2C48.7937 22.9055 48.555 22.6667 48.2604 22.6667Z" fill="#726FFF"/>
</svg>
