<svg width="59" height="59" viewBox="0 0 59 59" fill="none" xmlns="http://www.w3.org/2000/svg">
<g clip-path="url(#clip0_155_2064)">
<path d="M0.165039 29.335C0.165039 45.538 13.297 58.67 29.5 58.67C45.703 58.67 58.835 45.538 58.835 29.335C58.835 13.132 45.703 0 29.5 0C13.297 0 0.165039 13.132 0.165039 29.335ZM27.6666 38.5022C27.6666 37.4938 28.4916 36.6687 29.5 36.6687C34.6566 36.6687 39.3089 39.0178 42.7581 42.7535C43.4456 43.4983 43.3998 44.6557 42.6549 45.3432C41.9101 46.0307 40.7528 45.9849 40.0652 45.2401C37.2005 42.1347 33.4878 40.3242 29.4886 40.3242C28.4802 40.3242 27.6551 39.4991 27.6551 38.4907L27.6666 38.5022ZM18.4994 47.6694C15.4628 47.6694 12.9991 45.263 12.9991 42.2836C12.9991 39.9919 16.2764 35.3624 17.766 33.38C18.1327 32.8758 18.8661 32.8758 19.2328 33.38C20.7454 35.3624 23.9997 39.9919 23.9997 42.2836C23.9997 45.263 21.536 47.6694 18.4994 47.6694ZM34.9545 23.8347C34.9545 21.8064 36.5932 20.1678 38.6214 20.1678C40.6496 20.1678 42.2883 21.8064 42.2883 23.8347C42.2883 25.8629 40.6496 27.5016 38.6214 27.5016C36.5932 27.5016 34.9545 25.8629 34.9545 23.8347ZM20.287 27.5016C18.2588 27.5016 16.6201 25.8629 16.6201 23.8347C16.6201 21.8064 18.2588 20.1678 20.287 20.1678C22.3153 20.1678 23.9539 21.8064 23.9539 23.8347C23.9539 25.8629 22.3153 27.5016 20.287 27.5016Z" fill="#726FFF"/>
</g>
<defs>
<clipPath id="clip0_155_2064">
<rect width="58.67" height="58.67" fill="white" transform="translate(0.165039)"/>
</clipPath>
</defs>
</svg>
