<svg width="65" height="64" viewBox="0 0 65 64" fill="none" xmlns="http://www.w3.org/2000/svg">
<path d="M56.7915 27.5369C56.7915 32.3398 55.1757 36.7643 52.4602 40.2907C55.2413 40.0856 57.8242 41.7459 58.803 44.3678C59.8683 47.2213 58.5184 50.4124 55.7335 51.6239L55.4385 51.7424L38.7408 57.9199C36.5199 58.7412 34.1076 58.8887 31.804 58.3441L12.5396 53.793H6.37116C6.07493 53.793 5.83478 53.5519 5.83478 53.2544V50.2922C5.83478 49.9953 6.07411 49.7544 6.36983 49.7536H13.0076L32.7252 54.4124C34.1304 54.7442 35.5987 54.6902 36.976 54.2562L37.3502 54.1296L54.0573 47.9493C54.9222 47.6222 55.3607 46.654 55.0362 45.7856C54.6529 44.7603 53.5956 44.1556 52.5219 44.3475L52.3234 44.392L42.5799 47.0607H30.5085C30.2123 47.0607 29.9721 46.8195 29.9721 46.5221V43.5599C29.9721 43.2636 30.2135 43.0213 30.5085 43.0213H34.6655C35.7764 43.0207 36.6765 42.116 36.676 41.0006C36.6755 39.961 35.8891 39.0916 34.8586 38.9913L34.6655 38.9819H6.36976C6.07352 38.9819 5.83337 38.7408 5.83337 38.4433V35.4811C5.83471 35.1848 6.07475 34.9425 6.3711 34.9425L16.5692 34.9438C15.6754 32.5776 15.2187 30.0676 15.2215 27.5369C15.2215 16.0112 24.5278 6.66663 36.0065 6.66663C47.4852 6.66663 56.7915 16.0111 56.7915 27.5369ZM19.1667 27.3326C19.1667 29.9645 19.7774 32.4524 20.8627 34.6656H33.8334V31.9991H29.0334C28.7388 31.9991 28.5001 31.7603 28.5001 31.4658V28.5326C28.5001 28.2392 28.7401 27.9992 29.0334 27.9992H33.8321V26.666H29.0334C28.7388 26.666 28.5001 26.4272 28.5001 26.1327V23.1994C28.5001 22.9061 28.7401 22.6661 29.0334 22.6661H33.1201L28.2774 17.8249C28.069 17.6168 28.0688 17.2791 28.277 17.0707L30.3521 14.9957C30.5602 14.7881 30.8972 14.7881 31.1054 14.9957L35.8334 19.7236L40.5614 14.9957C40.7696 14.7881 41.1065 14.7881 41.3147 14.9957L43.3894 17.0703C43.5978 17.2785 43.598 17.6161 43.3898 17.8245L38.5454 22.6661H42.6334C42.9267 22.6661 43.1667 22.9061 43.1667 23.1994V26.1327C43.1667 26.4272 42.9279 26.666 42.6334 26.666H37.8321V27.9992H42.6334C42.9267 27.9992 43.1667 28.2392 43.1667 28.5326V31.4658C43.1667 31.7603 42.9279 31.9991 42.6334 31.9991H37.8321V35.6749C40.1177 37.1974 41.0763 40.0783 40.1587 42.6666L41.8334 42.6653L43.1707 42.3013C48.8824 39.5009 52.5018 33.6936 52.5 27.3326C52.5 18.1277 45.0387 10.6666 35.8334 10.6666C26.6281 10.6666 19.1667 18.1276 19.1667 27.3326Z" fill="#726FFF"/>
</svg>
