<svg width="230" height="112" viewBox="0 0 230 112" fill="none" xmlns="http://www.w3.org/2000/svg">
<path d="M55.9194 75.3846V18.1785H38.6887L28.3502 60.1354L18.0117 18.1785H0.43634V75.3846H11.5502V36.3569L22.1471 75.3846H34.0363L44.7194 36.1846V75.3846H55.9194Z" fill="#726FFF"/>
<path d="M97.5055 66.9415C91.9916 66.9415 87.9424 62.1169 87.9424 54.5354C87.9424 45.8339 91.2162 41.6123 97.5055 41.6123C103.881 41.6123 107.069 46.0062 107.069 55.2246C107.069 62.3754 102.933 66.9415 97.5055 66.9415ZM106.724 76.6769C106.724 82.2769 101.985 85.8092 96.0409 85.8092C90.4409 85.8092 86.7363 82.7939 86.7363 77.7108H76.3116C76.3116 88.6523 85.0132 95.4585 96.8163 95.4585C108.619 95.4585 117.924 88.5662 117.924 75.8154V32.9969H106.724V38.2523C104.053 33.9446 100.176 31.8769 94.8347 31.8769C84.5824 31.8769 76.3116 40.7508 76.3116 53.9323C76.3116 65.0462 81.1362 75.7292 95.0932 75.7292C100.607 75.7292 105.173 73.4892 106.724 69.6985V76.6769Z" fill="#726FFF"/>
<path d="M134.058 75.3846V53.3292C134.058 46.5231 137.418 43.0769 144.311 43.0769C145.344 43.0769 146.378 43.1631 147.412 43.3354V31.8769H145.947C141.381 31.8769 137.074 32.3939 133.369 38.08V32.9969H122.858V75.3846H134.058Z" fill="#726FFF"/>
<path d="M71.8384 75.3848V32.9971H61.0692V75.3848H66.4538H71.8384Z" fill="#726FFF"/>
<path d="M66.5755 15.2085L73.9468 22.5798L66.3318 30.1948L58.9605 22.8235L66.5755 15.2085Z" fill="#726FFF"/>
<path d="M168.78 67.1141C161.973 67.1141 158.527 62.8064 158.527 54.191C158.527 45.5757 161.973 41.3541 168.78 41.3541C175.586 41.3541 179.032 45.5757 179.032 54.191C179.032 62.8064 175.586 67.1141 168.78 67.1141ZM168.78 76.5049C181.961 76.5049 190.318 67.631 190.318 54.191C190.318 40.6649 182.047 31.8772 168.78 31.8772C155.34 31.8772 146.983 40.751 146.983 54.191C146.983 67.3726 155.081 76.5049 168.78 76.5049Z" fill="#726FFF"/>
<path fill-rule="evenodd" clip-rule="evenodd" d="M201.371 12.1047H202.986V22.874H201.371C192.901 22.874 185.345 26.785 180.409 32.8996C177.175 31.2197 173.371 30.3107 169.128 30.2635C175.738 19.3774 187.705 12.1047 201.371 12.1047ZM163.473 77.6485C161.828 90.9413 150.493 101.231 136.755 101.231H97.6845C83.4101 101.231 71.8384 89.6592 71.8384 75.3847H61.0692C61.0692 95.6068 77.4624 112 97.6845 112H136.755C156.468 112 172.646 96.8673 174.307 77.5849C172.561 77.9385 170.714 78.12 168.78 78.12C166.92 78.12 165.149 77.9598 163.473 77.6485ZM174.414 75.9112C172.654 76.3019 170.772 76.5046 168.78 76.5046C166.96 76.5046 165.24 76.3436 163.624 76.0333C163.66 75.4628 163.678 74.8875 163.678 74.3078V66.0117C165.091 66.7465 166.792 67.1139 168.78 67.1139C171.041 67.1139 172.931 66.6383 174.448 65.6873V74.3078C174.448 74.845 174.436 75.3795 174.414 75.9112ZM179.418 34.2073C176.397 32.6919 172.82 31.8769 168.78 31.8769C168.585 31.8769 168.392 31.8788 168.2 31.8825C166.492 35.0384 165.221 38.4655 164.469 42.0827C165.712 41.596 167.149 41.3539 168.78 41.3539C171.45 41.3539 173.603 42.0036 175.233 43.3136C176.055 39.9924 177.492 36.9141 179.418 34.2073ZM174.847 45.1502C173.519 43.748 171.573 42.9692 168.78 42.9692C166.843 42.9692 165.314 43.3435 164.115 44.0404C163.828 45.9173 163.678 47.8397 163.678 49.797V64.1238C164.938 65.0146 166.602 65.4985 168.78 65.4985C171.301 65.4985 173.135 64.8496 174.448 63.6713V49.797C174.448 48.2124 174.585 46.6598 174.847 45.1502Z" fill="#726FFF"/>
<path d="M199.755 0L229.909 17.2308L199.755 34.4615V20.2152V14.2463V0Z" fill="#726FFF"/>
</svg>
